<svg version="1.1" xmlns="http://www.w3.org/2000/svg" xmlns:xlink="http://www.w3.org/1999/xlink" width="256" height="256" viewBox="0 0 256 256">
<path stroke="none" fill="rgb(22,144,179)" fill-rule="evenodd" d="M0.0,128.0L0.0,0.0L128.0,0.0L256.0,0.0L256.0,128.0L256.0,256.0L128.0,256.0L0.0,256.0L0.0,128.0z"/>
<path stroke="none" fill="rgb(227,244,246)" fill-rule="evenodd" d="M100.0,106.43657227893277C100.0,87.24607506761369 100.32060207494712,79.91989100956884 101.18374429833572,79.38643977838953C101.83480366242037,78.98406296269131 105.35395392708475,78.73506896436325 109.0040782198121,78.83311978210494L115.64066784295277,79.01139399618074L117.93463409709227,76.56957881518592C119.196315536869,75.22658046563876 121.63966527220461,71.99208657069158 123.36430017561588,69.38181460419216C125.08893507902715,66.77154263769275 127.02806216778771,64.46677509740385 127.67347148397269,64.26010895910572C128.31888080015767,64.05344282080759 130.6340620293082,66.51600185285652 132.81831865986277,69.7324623636589C135.00257529041733,72.94892287446126 137.58018445143546,76.23744359705717 138.5463390176808,77.04028619164978C139.51249358392613,77.8431287862424 143.0473123547756,78.725 146.40149184179072,79.0L152.5,79.5L153.38760173242127,84.73173691180551C154.03511789692007,88.54835206143815 153.93969933696675,90.36773156677151 153.0348371749654,91.45802377211044C152.0433315607597,92.65271495062903 148.45445568626906,93.00749010897076 135.14723544254414,93.22628686030492L118.5,93.5L118.20592632544458,102.5C118.0441858044391,107.45 118.15280149701603,112.46286448950343 118.44729453117108,113.63969886556316C118.74178756532615,114.8165332416229 119.77412071887609,116.14565426765068 120.7413682057265,116.59330114562488C121.70861569257693,117.04094802359907 129.25,117.65308353409564 137.5,117.95360228006172L152.5,118.5L152.83466488968068,120.86533511031931C153.01873057900505,122.16626942099492 152.68126988349294,123.71873011650705 152.08475223298706,124.3152477670129C151.46681277159473,124.93318722840526 146.2286878071693,125.49909942358582 139.9101078900627,125.63056188273919C133.81057115196018,125.75746699588278 126.65445942390674,126.41632035866189 124.00763738327734,127.09468046669278L119.19523367304204,128.32806248129438L118.31342471754712,131.4140312406472L117.43161576205222,134.5L110.12330793558314,134.7956765791493C105.59671572950174,134.9788116263418 102.2792721430208,134.64673843641947 101.40750005455703,133.92323186370712L100.0,132.75511056911566L100.0,106.43657227893277z"/>
<path stroke="none" fill="rgb(214,244,246)" fill-rule="evenodd" d="M100.18963473827397,147.75C99.97789000167019,145.1915862205446 100.29564632714875,143.9776327657 101.18963473827397,143.92960884644447C101.91033563222328,143.89089371198895 104.525,143.81311371843435 107.0,143.7567644163232C109.475,143.70041511421203 112.98966436777671,143.732091133312 114.81036526172603,143.8271555698787L118.12073052345207,144.0L117.81036526172603,147.75L117.5,151.5L109.0,151.5L100.5,151.5L100.18963473827397,147.75z"/>
<path stroke="none" fill="rgb(229,245,246)" fill-rule="evenodd" d="M100.1600370725939,172.21481624151198C100.24805746252052,170.7216673086804 100.50156878036019,168.0375 100.72339555668202,166.25L101.12671696817627,163.0L109.59547711498458,163.0C115.37131095779456,163.0 119.2464623290334,162.46724303601113 121.78211863089643,161.32457689693746C123.8269533839034,160.40309419025306 126.4,159.5590574632891 127.5,159.44893972590643C128.6,159.33882198852373 130.59519110523578,160.1100712796661 131.93375801163512,161.16282703955608L134.3675160232702,163.07692842117427L136.30875801163512,161.13568643280934C137.37644110523578,160.06800333920862 138.25,157.9745165037803 138.25,156.4834934651909C138.25,154.99247042660147 137.63125,153.38061117513413 136.875,152.90158401748573C136.11875,152.42255685983736 132.9125,152.02373480050144 129.75,152.01531277451704L124.0,152.0L124.0,144.0L124.0,136.0L127.25,135.92683301167034C129.0375,135.88659116808904 133.81314625049012,135.91745279822769 137.86254722331137,135.99541441197843L145.22509444662276,136.13716280061615L147.50839933230586,133.9921092370066C149.0110315976952,132.5804595200202 150.7675507318506,131.95867803306334 152.64585210899446,132.1735278366985L155.5,132.5L155.77104317333038,153.49802867542223L156.04208634666077,174.49605735084444L154.32991353822547,175.74802867542223C153.3552603064608,176.46071251876137 149.68199115452614,177.0 145.80231405619094,177.0L138.9868873825917,177.0L134.5669474441071,183.8955551880871C132.13598047794054,187.68811054153497 129.66591825504585,191.0884398846527 129.0779202821189,191.45184261723756C128.4899223091919,191.81524534982245 126.8365459259613,190.8497455151833 125.40375054160639,189.3062874291505C123.97095515725147,187.76282934311772 122.11470264454717,185.15 121.27874495781904,183.5C120.4427872710909,181.85 119.06834256260605,179.7125 118.22442338340822,178.75C117.06256304254694,177.42488427133276 115.13355144944074,177.0 110.27927098379857,177.0C106.75335634321108,177.0 102.99810074616153,176.5341673086804 101.93425854591067,175.96481624151198C100.67031935532943,175.28837651499646 100.05546101763736,173.98881002849973 100.1600370725939,172.21481624151198z"/>
<path stroke="none" fill="rgb(218,247,247)" fill-rule="evenodd" d="M124.0,105.0L124.0,101.0L135.75,101.09968002535062C142.2125,101.15450403929347 148.625,101.51045155489146 150.0,101.89067450445727C151.42471153865452,102.2846439760992 152.60999244797495,103.42458737114477 152.75572776963799,104.54099447910664C152.89637804293886,105.61844751559799 152.63003765325482,107.08641897935132 152.16386023700676,107.80315328744739C151.55663695664774,108.73674153633921 148.36459231598593,109.105120581984 140.90813246736877,109.10212454900126C135.18365961031594,109.09982443475982 129.0375,109.0759054554085 127.25,109.04897126155387L124.0,109.0L124.0,105.0z"/>
<path stroke="none" fill="rgb(161,112,67)" fill-rule="evenodd" d="M226.0,239.22318047184103C226.0,238.79592973135357 229.0544181853831,235.4153479167367 232.78759596751803,231.71077643935905C238.10541698929867,226.433704403475 239.83772392420875,225.23772392420875 240.78759596751803,226.187595967518C241.4544181853831,226.8544181853831 242.0,228.79672494734712 242.0,230.50383321632694C242.0,232.70196006942854 241.03774988687314,234.54031596378042 238.70239275685168,236.80383321632695L235.40478551370336,240.0L230.70239275685168,240.0C228.11607674058325,240.0 226.0,239.65043121232847 226.0,239.22318047184103z"/>
</svg>